<svg width="45" height="38" viewBox="0 0 45 38" fill="none" xmlns="http://www.w3.org/2000/svg">
<path d="M0.0818182 29.2759C0.218168 29.0748 0.436336 29.0622 0.736364 29.2382C7.55452 32.8852 14.9727 34.7086 22.9909 34.7086C28.3363 34.7086 33.6136 33.7906 38.8227 31.9545C38.9591 31.9043 39.1568 31.8288 39.4159 31.7282C39.675 31.6276 39.8591 31.5521 39.9682 31.5018C40.3773 31.3509 40.6977 31.4264 40.9295 31.7282C41.1613 32.03 41.0863 32.3067 40.7045 32.5582C40.2136 32.8852 39.5863 33.2624 38.8227 33.69C36.4772 34.9727 33.8591 35.9661 30.9682 36.6704C28.0773 37.3746 25.2545 37.7267 22.5 37.7267C18.2455 37.7267 14.2227 37.0414 10.4318 35.6706C6.6409 34.2999 3.24544 32.3695 0.245455 29.8796C0.0818182 29.7538 0 29.6281 0 29.5023C0 29.4269 0.0272455 29.3514 0.0818182 29.2759ZM12.3955 18.5238C12.3955 16.7884 12.8591 15.3045 13.7864 14.0721C14.7136 12.8397 15.9818 11.9091 17.5909 11.2803C19.0636 10.7018 20.8773 10.2868 23.0318 10.0353C23.7682 9.95986 24.9682 9.85924 26.6318 9.7335V9.09214C26.6318 7.48246 26.4409 6.40098 26.0591 5.84764C25.4864 5.09311 24.5864 4.71584 23.3591 4.71584H23.0318C22.1318 4.7913 21.3545 5.05538 20.7 5.5081C20.0455 5.96082 19.6227 6.58962 19.4318 7.39444C19.3227 7.89745 19.05 8.1867 18.6136 8.26216L13.9091 7.73398C13.4454 7.63336 13.2136 7.407 13.2136 7.0549C13.2136 6.97945 13.2273 6.89143 13.2545 6.79081C13.7182 4.55237 14.8568 2.8924 16.6705 1.81088C18.4841 0.729371 20.6045 0.125743 23.0318 0H24.0545C27.1636 0 29.5909 0.741972 31.3364 2.22588C31.6101 2.47854 31.8631 2.74966 32.0932 3.037C32.325 3.32625 32.5091 3.58404 32.6455 3.8104C32.7818 4.03676 32.9045 4.36374 33.0136 4.7913C33.1227 5.21885 33.2045 5.5144 33.2591 5.67787C33.3136 5.84134 33.3545 6.19349 33.3818 6.73422C33.4091 7.27496 33.4227 7.59564 33.4227 7.69625V16.8261C33.4227 17.48 33.525 18.0774 33.7295 18.6181C33.9341 19.1589 34.1318 19.5487 34.3227 19.7877C34.5136 20.0266 34.8273 20.4102 35.2636 20.9383C35.4273 21.1647 35.5091 21.3659 35.5091 21.542C35.5091 21.7432 35.4 21.9192 35.1818 22.0701C32.9182 23.881 31.6909 24.8619 31.5 25.0128C31.1727 25.2392 30.7773 25.2644 30.3136 25.0883C29.9318 24.7865 29.5977 24.4972 29.3114 24.2206C29.025 23.9439 28.8205 23.7427 28.6977 23.6169C28.575 23.4912 28.3772 23.246 28.1045 22.8813C27.8318 22.5166 27.6409 22.2713 27.5318 22.1456C26.0045 23.6798 24.5045 24.6356 23.0318 25.0128C22.1045 25.2644 20.9591 25.3901 19.5955 25.3901C17.4954 25.3901 15.7705 24.7928 14.4205 23.5981C13.0705 22.4034 12.3955 20.712 12.3955 18.5238ZM19.4318 17.7693C19.4318 18.7502 19.6977 19.5361 20.2295 20.1272C20.7614 20.7183 21.4773 21.0138 22.3773 21.0138C22.4591 21.0138 22.575 21.0012 22.725 20.9761C22.875 20.9509 22.9772 20.9383 23.0318 20.9383C24.1773 20.6617 25.0636 19.9826 25.6909 18.9011C25.9909 18.4232 26.2159 17.9013 26.3659 17.3354C26.5159 16.7695 26.5977 16.3105 26.6114 15.9584C26.625 15.6063 26.6318 15.0278 26.6318 14.223V13.2798C25.05 13.2798 23.85 13.3804 23.0318 13.5816C20.6318 14.2104 19.4318 15.6063 19.4318 17.7693ZM36.6136 29.9173C36.6682 29.8167 36.75 29.7161 36.8591 29.6155C37.5409 29.1879 38.1954 28.8987 38.8227 28.7478C39.8591 28.4963 40.8682 28.3579 41.85 28.3328C42.1227 28.3076 42.3818 28.3202 42.6273 28.3705C43.8545 28.4711 44.5909 28.6598 44.8364 28.9364C44.9454 29.0873 45 29.3137 45 29.6155V29.8796C45 30.7599 44.7409 31.7973 44.2227 32.992C43.7045 34.1867 42.9818 35.1488 42.0545 35.8781C41.9182 35.9787 41.7954 36.029 41.6864 36.029C41.6318 36.029 41.5773 36.0165 41.5227 35.9913C41.3591 35.9159 41.3182 35.7775 41.4 35.5763C42.4091 33.3882 42.9136 31.8665 42.9136 31.0114C42.9136 30.7347 42.8591 30.5335 42.75 30.4078C42.4773 30.1059 41.7136 29.955 40.4591 29.955C39.9954 29.955 39.45 29.9802 38.8227 30.0305C38.1409 30.1059 37.5136 30.1814 36.9409 30.2568C36.7773 30.2568 36.6682 30.2317 36.6136 30.1814C36.5591 30.1311 36.5454 30.0808 36.5727 30.0305C36.5727 30.0053 36.5863 29.9676 36.6136 29.9173Z" transform="translate(0 0.214081)" fill="#D2D6E0"/>
</svg>
