<svg width="576" height="786" viewBox="0 0 576 786" fill="none" xmlns="http://www.w3.org/2000/svg">
  <path d="M.0000146 786L.00000294 3.84915C54.7329-16.9791 49.5204 55.019 95.5655 23.0198 141.611-8.97933 154.123 92.8316 183.085 78.0183c28.961-14.8132 36.281 98.6497 92.861 64.2987 56.581-34.351 25.022 90.722 85.426 54.609 60.403-36.112 4.378 131.732 121.362 56.864s111.632 203.464 51.229 159.424c-60.404-44.04-125.663 150.824-179.95 119.996-54.287-30.828-74.932 124.193-122.337 95.127-47.405-29.067-40.524 82.758-83.342 68.665-42.818-14.093-35.937 57.289-77.9902 41.435C28.2905 722.582 38.995 786 .0000146 786z" fill="url(#paint0_linear)"/>
  <defs>
    <linearGradient id="paint0_linear" x2="1" gradientUnits="userSpaceOnUse" gradientTransform="scale(667.151 1149.73) rotate(45 .63187636 .23826719)">
      <stop stop-color="#9C09DB"/>
      <stop offset="1" stop-color="#1C0FD7"/>
    </linearGradient>
  </defs>
</svg>
