<svg width="80" height="16" viewBox="0 0 80 16" fill="none" xmlns="http://www.w3.org/2000/svg">
<path d="M4.6 30.4L4.28 31.6H7.06L6.76 30.4C6.57333 29.7467 6.39333 29.0533 6.22 28.32C6.04667 27.5867 5.87333 26.88 5.7 26.2H5.62C5.46 26.8933 5.29333 27.6067 5.12 28.34C4.96 29.06 4.78667 29.7467 4.6 30.4ZM-0.12 37L3.96 23.96H7.5L11.58 37H8.46L7.66 33.9H3.68L2.88 37H-0.12ZM17.0848 37.24C16.3915 37.24 15.7448 37.1267 15.1448 36.9C14.5582 36.66 14.0448 36.32 13.6048 35.88C13.1648 35.44 12.8182 34.9 12.5648 34.26C12.3115 33.6067 12.1848 32.8667 12.1848 32.04C12.1848 31.2133 12.3248 30.48 12.6048 29.84C12.8848 29.1867 13.2582 28.64 13.7248 28.2C14.2048 27.76 14.7582 27.4267 15.3848 27.2C16.0115 26.96 16.6648 26.84 17.3448 26.84C17.9582 26.84 18.4982 26.94 18.9648 27.14C19.4448 27.34 19.8715 27.5933 20.2448 27.9L18.8648 29.8C18.3982 29.4133 17.9515 29.22 17.5248 29.22C16.8048 29.22 16.2382 29.4733 15.8248 29.98C15.4115 30.4867 15.2048 31.1733 15.2048 32.04C15.2048 32.9067 15.4115 33.5933 15.8248 34.1C16.2515 34.6067 16.7848 34.86 17.4248 34.86C17.7448 34.86 18.0515 34.7933 18.3448 34.66C18.6515 34.5133 18.9382 34.34 19.2048 34.14L20.3648 36.06C19.8715 36.4867 19.3382 36.7933 18.7648 36.98C18.1915 37.1533 17.6315 37.24 17.0848 37.24ZM25.8544 37.24C25.161 37.24 24.5144 37.1267 23.9144 36.9C23.3277 36.66 22.8144 36.32 22.3744 35.88C21.9344 35.44 21.5877 34.9 21.3344 34.26C21.081 33.6067 20.9544 32.8667 20.9544 32.04C20.9544 31.2133 21.0944 30.48 21.3744 29.84C21.6544 29.1867 22.0277 28.64 22.4944 28.2C22.9744 27.76 23.5277 27.4267 24.1544 27.2C24.781 26.96 25.4344 26.84 26.1144 26.84C26.7277 26.84 27.2677 26.94 27.7344 27.14C28.2144 27.34 28.641 27.5933 29.0144 27.9L27.6344 29.8C27.1677 29.4133 26.721 29.22 26.2944 29.22C25.5744 29.22 25.0077 29.4733 24.5944 29.98C24.181 30.4867 23.9744 31.1733 23.9744 32.04C23.9744 32.9067 24.181 33.5933 24.5944 34.1C25.021 34.6067 25.5544 34.86 26.1944 34.86C26.5144 34.86 26.821 34.7933 27.1144 34.66C27.421 34.5133 27.7077 34.34 27.9744 34.14L29.1344 36.06C28.641 36.4867 28.1077 36.7933 27.5344 36.98C26.961 37.1533 26.401 37.24 25.8544 37.24Z" transform="translate(1.00002 -22.0007)" fill="white" fill-opacity="0.65"/>
<path d="M35.0903 37.24C34.237 37.24 33.3836 37.0867 32.5303 36.78C31.6903 36.46 30.937 35.9867 30.2703 35.36L31.9503 33.34C32.417 33.74 32.9303 34.0667 33.4903 34.32C34.0636 34.5733 34.6236 34.7 35.1703 34.7C35.7836 34.7 36.237 34.5867 36.5303 34.36C36.837 34.1333 36.9903 33.8267 36.9903 33.44C36.9903 33.24 36.9436 33.0667 36.8503 32.92C36.7703 32.7733 36.6436 32.6467 36.4703 32.54C36.3103 32.42 36.1103 32.3133 35.8703 32.22C35.6436 32.1133 35.3903 32 35.1103 31.88L33.4103 31.16C33.077 31.0267 32.7503 30.8533 32.4303 30.64C32.1236 30.4267 31.8436 30.18 31.5903 29.9C31.3503 29.6067 31.157 29.2733 31.0103 28.9C30.8636 28.5133 30.7903 28.08 30.7903 27.6C30.7903 27.0667 30.9036 26.5667 31.1303 26.1C31.357 25.62 31.677 25.2067 32.0903 24.86C32.5036 24.5 32.9903 24.22 33.5503 24.02C34.1236 23.82 34.7503 23.72 35.4303 23.72C36.1903 23.72 36.937 23.8667 37.6703 24.16C38.417 24.4533 39.0703 24.88 39.6303 25.44L38.1303 27.3C37.7036 26.9667 37.277 26.7133 36.8503 26.54C36.4236 26.3533 35.9503 26.26 35.4303 26.26C34.9236 26.26 34.517 26.3667 34.2103 26.58C33.917 26.78 33.7703 27.0667 33.7703 27.44C33.7703 27.64 33.817 27.8133 33.9103 27.96C34.017 28.0933 34.157 28.22 34.3303 28.34C34.517 28.4467 34.7303 28.5533 34.9703 28.66C35.2103 28.7533 35.4703 28.86 35.7503 28.98L37.4303 29.66C38.2303 29.98 38.857 30.42 39.3103 30.98C39.777 31.54 40.0103 32.28 40.0103 33.2C40.0103 33.7467 39.897 34.2667 39.6703 34.76C39.457 35.24 39.137 35.6667 38.7103 36.04C38.297 36.4 37.7836 36.6933 37.1703 36.92C36.557 37.1333 35.8636 37.24 35.0903 37.24ZM45.2372 37.24C44.6239 37.24 44.0972 37.1467 43.6572 36.96C43.2305 36.7733 42.8772 36.5133 42.5972 36.18C42.3305 35.8467 42.1305 35.4467 41.9972 34.98C41.8772 34.5 41.8172 33.9733 41.8172 33.4V29.38H40.4572V27.2L41.9772 27.08L42.3172 24.44H44.7572V27.08H47.1372V29.38H44.7572V33.36C44.7572 33.92 44.8705 34.3267 45.0972 34.58C45.3372 34.82 45.6505 34.94 46.0372 34.94C46.1972 34.94 46.3572 34.92 46.5172 34.88C46.6905 34.84 46.8439 34.7933 46.9772 34.74L47.4372 36.88C47.1705 36.96 46.8572 37.04 46.4972 37.12C46.1372 37.2 45.7172 37.24 45.2372 37.24ZM52.9819 37.24C52.3552 37.24 51.7485 37.1267 51.1619 36.9C50.5752 36.66 50.0552 36.32 49.6019 35.88C49.1619 35.44 48.8085 34.9 48.5419 34.26C48.2752 33.6067 48.1419 32.8667 48.1419 32.04C48.1419 31.2133 48.2752 30.48 48.5419 29.84C48.8085 29.1867 49.1619 28.64 49.6019 28.2C50.0552 27.76 50.5752 27.4267 51.1619 27.2C51.7485 26.96 52.3552 26.84 52.9819 26.84C53.6085 26.84 54.2085 26.96 54.7819 27.2C55.3685 27.4267 55.8819 27.76 56.3219 28.2C56.7752 28.64 57.1352 29.1867 57.4019 29.84C57.6685 30.48 57.8019 31.2133 57.8019 32.04C57.8019 32.8667 57.6685 33.6067 57.4019 34.26C57.1352 34.9 56.7752 35.44 56.3219 35.88C55.8819 36.32 55.3685 36.66 54.7819 36.9C54.2085 37.1267 53.6085 37.24 52.9819 37.24ZM52.9819 34.86C53.5819 34.86 54.0352 34.6067 54.3419 34.1C54.6485 33.5933 54.8019 32.9067 54.8019 32.04C54.8019 31.1733 54.6485 30.4867 54.3419 29.98C54.0352 29.4733 53.5819 29.22 52.9819 29.22C52.3685 29.22 51.9085 29.4733 51.6019 29.98C51.3085 30.4867 51.1619 31.1733 51.1619 32.04C51.1619 32.9067 51.3085 33.5933 51.6019 34.1C51.9085 34.6067 52.3685 34.86 52.9819 34.86ZM64.1356 37.24C63.4423 37.24 62.7956 37.1267 62.1956 36.9C61.609 36.66 61.0956 36.32 60.6556 35.88C60.2156 35.44 59.869 34.9 59.6156 34.26C59.3623 33.6067 59.2356 32.8667 59.2356 32.04C59.2356 31.2133 59.3756 30.48 59.6556 29.84C59.9356 29.1867 60.309 28.64 60.7756 28.2C61.2556 27.76 61.809 27.4267 62.4356 27.2C63.0623 26.96 63.7156 26.84 64.3956 26.84C65.009 26.84 65.549 26.94 66.0156 27.14C66.4956 27.34 66.9223 27.5933 67.2956 27.9L65.9156 29.8C65.449 29.4133 65.0023 29.22 64.5756 29.22C63.8556 29.22 63.289 29.4733 62.8756 29.98C62.4623 30.4867 62.2556 31.1733 62.2556 32.04C62.2556 32.9067 62.4623 33.5933 62.8756 34.1C63.3023 34.6067 63.8356 34.86 64.4756 34.86C64.7956 34.86 65.1023 34.7933 65.3956 34.66C65.7023 34.5133 65.989 34.34 66.2556 34.14L67.4156 36.06C66.9223 36.4867 66.389 36.7933 65.8156 36.98C65.2423 37.1533 64.6823 37.24 64.1356 37.24ZM69.1516 37V22.98H72.0116V31.02H72.0916L75.2316 27.08H78.4316L74.9516 31.16L78.6916 37H75.5116L73.2716 33.14L72.0116 34.56V37H69.1516Z" transform="translate(1.00002 -22.0007)" fill="#DAD8E9"/>
</svg>
