<svg width="157" height="103" viewBox="0 0 157 103" fill="none" xmlns="http://www.w3.org/2000/svg">
<path d="M53.5727 34.0267C59.1287 41.7088 68.3477 38.494 68.6769 38.327C72.0105 40.832 80.2829 39.2872 80.2829 36.9492C80.2829 35.9785 79.7134 36.1814 78.595 36.5797C77.3083 37.0381 75.295 37.7552 72.5867 37.2415C81.9703 32.7741 83.7812 28.1398 83.0815 27.5971C82.6402 27.2413 81.4773 28.214 79.7611 29.6493C75.235 33.435 66.8608 40.4391 57.7294 34.7782C70.5335 34.7782 75.5568 28.4219 79.5261 23.3992C82.6633 19.4295 85.1421 16.2928 90.2838 17.7857C90.325 18.412 89.7076 20.3325 88.2672 22.1695C88.0202 22.5035 88.4729 22.921 88.761 22.6288C93.6616 18.0767 92.9717 14.3839 92.2812 10.6875C92.009 9.23068 91.7368 7.77332 91.8066 6.26258C92.0947 -0.334004 102.878 -0.167002 102.878 10.7299C102.878 15.9904 102.178 20.5412 101.684 23.422C101.602 23.9648 102.301 24.2153 102.589 23.756C102.59 23.754 102.595 23.7432 102.602 23.7244C102.904 22.9671 108.398 9.16163 115.224 23.2968C119.381 31.9391 125.719 34.1102 128.97 35.1122C117.295 36.107 113.97 31.6851 112.677 29.9649C112.234 29.3749 112.029 29.1027 111.808 29.4759C110.944 30.9371 111.891 35.1122 121.357 37.492C114.753 37.492 111.581 35.6078 109.881 34.5982L109.833 34.5694C109.545 34.4024 109.257 34.6947 109.38 34.9869C110.574 37.4085 114.195 38.7862 114.195 38.7862C114.195 38.7862 108.351 40.2475 103.783 37.1997C103.783 37.1997 102.096 36.2812 103.001 37.8677C103.906 39.4125 107.528 41.4165 111.109 41.4165C113.456 41.4165 114.548 41.0217 115.299 40.7497C115.694 40.6069 115.995 40.498 116.336 40.498C123.785 40.498 125.308 38.1182 125.308 38.1182C125.348 38.1182 125.389 38.1183 125.431 38.1185L125.529 38.1189L125.698 38.1199C128.506 38.1378 134.6 38.1765 138.601 31.7304C138.93 31.1876 138.354 30.5196 137.778 30.8119C136.049 31.6469 133.58 32.3984 131.399 32.3984C122.698 32.3984 118.288 23.9554 116.38 20.3031C116.275 20.103 116.178 19.9172 116.089 19.748C111.603 11.4814 105.717 14.9049 104.853 15.5312C104.853 15.5312 105.059 10.6881 104.647 7.76559C107.034 9.93662 112.385 10.3959 114.113 10.3959C121.398 10.3959 120.904 7.68209 120.41 7.18109C119.34 6.09557 118.064 7.51509 118.064 7.51509C116.459 9.81137 106.417 9.22686 103.536 4.55081C105.758 5.67807 113.331 7.51509 117.817 3.67404C118.681 2.92254 119.71 1.12726 118.476 0.626258C117.423 0.157003 117.161 0.659803 116.75 1.45167C116.099 2.70297 115.073 4.67606 109.956 4.67606C106.977 4.69734 104.779 3.48169 102.614 2.28473C100.532 1.13373 98.482 0 95.7987 0C91.6419 0 90.078 3.42354 89.7899 4.96831C89.7285 5.32135 89.6366 5.35417 89.0886 5.54974C88.5349 5.74735 87.5157 6.11114 85.592 7.13934C85.2628 7.30634 85.3451 7.80734 85.6743 7.89085C90.7777 9.10161 91.2715 9.72787 91.0658 15.4894C84.5373 11.9107 81.1251 15.8298 73.8618 24.172L73.5333 24.5493C66.6191 32.4819 50.9798 32.1061 46.8231 28.1816C46.583 27.9609 46.3634 27.754 46.1626 27.5648L46.1611 27.5634C45.2615 26.7159 44.7387 26.2234 44.436 26.4281C44.1177 26.6218 44.3164 27.0154 44.499 27.3769C44.5524 27.4828 44.6045 27.586 44.6418 27.6806C45.1769 29.0166 47.1935 32.1896 53.5727 34.0267Z" fill="#FDFDFF"/>
<path d="M94.6052 5.01006C94.1525 5.09356 93.8232 5.42757 93.7409 5.88682C93.6174 6.59658 94.2348 7.18109 94.9344 7.09759C95.3872 7.01408 95.7164 6.68008 95.7987 6.22082C95.881 5.46932 95.3048 4.88481 94.6052 5.01006Z" fill="#FDFDFF"/>
<path d="M29.373 86.7576C33.612 95.6087 51.1445 95.1494 51.1445 95.1494C58.6542 95.1494 64.9907 93.675 71.4403 92.1742C85.6685 88.8634 100.448 85.4244 129.588 97.4039C119.691 95.5954 109.007 97.5211 97.5227 99.5911C88.3274 101.249 78.6185 102.999 68.3888 102.999C68.269 102.999 68.1352 102.999 67.988 102.999C61.0045 103.015 23.8788 103.099 22.9115 74.1907C22.788 70.2244 25.422 71.3516 25.2574 73.1051C25.0928 74.8587 23.9404 94.2727 52.7907 83.6263C52.7907 83.6263 54.8485 82.7078 55.3424 83.9603C55.8774 85.2545 54.0666 85.7138 54.0666 85.7138C39.7031 90.5569 35.5875 89.6801 29.373 86.7576Z" fill="#FDFDFF"/>
<path d="M73.4099 72.0614L60.3223 74.9839C60.0753 75.0257 59.8696 75.1927 59.7461 75.4014L56.7005 81.3717C56.3713 82.0398 56.9886 82.7913 57.6883 82.5825L69.3766 79.0755C69.6235 78.992 69.8293 78.8667 69.9528 78.658L73.9449 72.9381C74.2741 72.5206 73.9037 71.9779 73.4099 72.0614Z" fill="#FDFDFF"/>
<path d="M68.5946 81.0795C69.5824 80.7872 70.6524 80.996 71.4755 81.664L75.3442 84.7953C75.9204 85.2963 75.7146 86.2148 75.015 86.3818L66.7014 88.5528C64.8083 89.0538 62.7916 88.7198 61.1865 87.5926L58.141 85.2963C57.606 84.9205 57.7294 84.1273 58.3468 83.9185L68.5946 81.0795Z" fill="#FDFDFF"/>
<path d="M91.1481 70.3496L80.6122 70.8089C78.9659 70.9341 77.4431 71.8109 76.5377 73.2304L74.0684 77.0714C73.6568 77.6977 74.1507 78.5327 74.8915 78.4492L86.7855 77.1967C87.0736 77.1549 87.3206 77.0297 87.5264 76.8209L91.8477 72.0614C92.5062 71.2264 92.177 70.2661 91.1481 70.3496Z" fill="#FDFDFF"/>
<path d="M90.9423 85.505L81.1883 85.7973C79.9948 85.839 78.8836 85.3798 78.0605 84.5448L74.5622 81.0377C74.1095 80.5785 74.3976 79.7852 75.0561 79.7435L86.3328 78.9502C87.0325 78.9085 87.7321 79.159 88.226 79.66L91.8477 83.1253C92.712 83.9603 92.1358 85.4633 90.9423 85.505Z" fill="#FDFDFF"/>
<path d="M109.092 71.1011L98.3504 70.4331C97.0745 70.3496 95.7987 70.8506 94.8933 71.8109L91.7243 75.1927C91.0658 75.9024 91.5185 77.0714 92.5062 77.1132L103.083 77.4472C104.277 77.4889 105.429 77.0714 106.335 76.3199L109.833 73.4391C110.738 72.6876 110.286 71.1846 109.092 71.1011Z" fill="#FDFDFF"/>
<path d="M107.487 86.2148L96.9922 85.5468C96.4572 85.5051 95.9633 85.2963 95.6752 84.8788L91.7243 80.2862C91.1069 79.5347 91.642 78.4075 92.5885 78.4492L102.589 78.825C103.989 78.9085 105.306 79.6182 106.129 80.7873L108.557 84.2943C109.133 85.1293 108.475 86.2983 107.487 86.2148Z" fill="#FDFDFF"/>
<path d="M127.489 75.3596L117.447 72.7294C115.801 72.2701 114.072 72.6459 112.755 73.7731L109.01 76.9462C108.557 77.3219 108.722 78.1152 109.298 78.2404L119.916 80.495C121.274 80.7872 122.715 80.5785 123.949 79.9104L127.9 77.2384C128.806 76.7374 128.518 75.6519 127.489 75.3596Z" fill="#FDFDFF"/>
<path d="M123.949 90.0559L114.319 87.5091C111.935 86.8689 111.104 85.4409 109.409 82.5284C109.114 82.0219 108.793 81.4706 108.434 80.8707C108.228 80.4115 108.598 79.8687 109.133 79.9522L118.97 81.7475C121.11 82.165 122.879 83.6263 123.744 85.6303L125.061 88.7616C125.349 89.4714 124.69 90.2646 123.949 90.0559Z" fill="#FDFDFF"/>
<path d="M132.412 82.7683C129.209 80.1743 128.843 79.878 127.53 79.9105C125.801 79.9522 124.361 81.4135 124.279 83.167C124.108 86.9048 127.388 86.913 132.336 86.9253C133.357 86.9279 134.449 86.9306 135.597 86.9663C136.337 86.9663 136.584 85.9643 135.926 85.5885C134.467 84.4326 133.326 83.5081 132.414 82.7698L132.412 82.7683Z" fill="#FDFDFF"/>
<path fill-rule="evenodd" clip-rule="evenodd" d="M42.4606 69.3058C44.3126 72.1866 43.4483 77.7394 37.1926 77.7394H37.1744C35.8534 77.7398 29.1007 77.7418 23.6934 60.4547C23.6032 60.7384 23.4992 61.1409 23.372 61.6328C22.339 65.6295 19.7807 75.5266 10.7293 75.5266C-4.29262 75.5266 -2.60522 57.2817 9.98851 57.2817C17.2731 57.2817 16.7792 64.922 13.2398 67.093C12.7048 67.4271 12.1286 66.8008 12.4579 66.258C14.1864 63.5025 13.3221 60.2877 9.90619 60.747C3.93858 61.6237 3.52702 71.7274 10.4001 71.7274C10.4001 71.7274 16.4088 72.6876 17.6435 61.9995C18.8782 51.3114 20.0717 43.7545 20.0717 43.7545C-0.588579 51.6036 16.4088 60.1625 14.9272 48.9733C14.8861 48.6811 15.2153 48.4723 15.4623 48.5976C16.3677 49.0151 17.7258 50.0588 17.7258 51.7706C17.5612 56.8642 6.49025 58.9934 6.49025 50.0171C6.49025 48.1383 7.39568 41.4165 21.2241 41.4165C22.0472 40.0805 25.3808 35.6967 30.6488 35.6967C32.9535 35.6967 33.2828 37.0327 33.2005 37.9929C33.1593 38.5775 32.0893 41.8757 26.1628 41.9592C25.9159 43.337 24.0227 54.4844 24.3931 56.9477C25.6545 55.2495 26.8686 52.7017 28.1893 49.9305C31.4791 43.027 35.43 34.7364 42.4194 34.7364C48.9632 34.7364 48.0578 42.7943 43.5306 42.7943C40.4439 42.7943 40.979 38.828 40.979 38.828C40.979 38.828 38.5096 38.2435 35.9168 42.9195C35.058 44.4682 34.6914 45.9986 34.3069 47.6032C33.5306 50.8434 32.6818 54.3862 27.5621 58.9935C27.5621 58.9935 33.2828 73.3139 37.563 73.3139C40.5262 73.3139 41.4317 71.2681 41.3905 69.6398C41.3905 69.0553 42.1313 68.8048 42.4606 69.3058ZM31.3073 36.6569C33.9001 37.8677 26.7801 40.164 26.7801 40.164C26.7801 40.164 28.7145 35.4462 31.3073 36.6569Z" fill="#FDFDFF"/>
<path fill-rule="evenodd" clip-rule="evenodd" d="M56.6182 48.0131C52.1679 48.0131 50.8245 49.6302 49.8268 50.8312C49.2376 51.5405 48.7689 52.1046 47.852 52.1046C47.4213 52.1046 46.948 51.5169 46.4321 50.8763C45.8142 50.1089 45.1351 49.2656 44.3949 49.2656C40.3616 49.2656 42.7075 53.7329 44.5595 53.7329C44.5595 55.2359 43.6952 63.3355 39.8677 63.3355C36.2872 63.3355 37.2338 54.7767 39.9912 52.4804C41.1436 51.5201 41.9667 49.1821 40.1147 49.9754C30.8957 53.6911 27.9737 67.5523 37.563 67.5523C44.9299 67.5523 47.07 57.741 46.7819 54.5262H48.9221C48.9221 54.5262 48.7574 79.7017 38.0569 82.0815C37.3161 82.2485 37.8099 83.2505 38.5508 83.2088C38.7065 83.1966 38.8845 83.1879 39.082 83.1781C42.2755 83.021 50.5623 82.6133 52.4615 63.5443C60.5692 65.59 62.2978 57.6157 62.2978 55.6117C62.2978 48.4723 58.7583 48.0131 56.6182 48.0131ZM58.3879 56.6972C57.8941 60.1207 53.2434 60.6217 53.4492 59.244C53.5572 58.4494 53.7716 57.0975 53.9528 55.9551C54.0477 55.3567 54.1334 54.8158 54.19 54.4427C55.0955 48.1383 59.458 49.3491 58.3879 56.6972Z" fill="#FDFDFF"/>
<path fill-rule="evenodd" clip-rule="evenodd" d="M154.528 64.5045C151.195 61.9578 153.87 58.3255 156.38 60.5382C158.52 62.4588 155.228 77.99 144.774 75.4432C134.709 73.2465 142.265 63.3603 142.888 62.5457C142.904 62.5242 142.916 62.5091 142.922 62.5005C142.915 62.4968 142.903 62.4902 142.885 62.4807C142.702 62.3833 141.957 61.9859 140.494 61.415C138.395 73.7314 124.196 75.1509 124.567 65.7571C122.139 67.4271 113.331 72.1449 109.709 65.1308C106.993 66.8426 105.265 66.9678 103.371 65.0473C103.364 65.0526 103.351 65.0628 103.333 65.0769C103.072 65.2835 101.731 66.3459 98.8031 65.7988C89.8575 63.9593 95.4306 55.1158 95.8607 54.4333C95.8699 54.4188 95.8767 54.4079 95.881 54.4009C95.8641 54.3952 95.834 54.3856 95.7904 54.3716C95.5157 54.2835 94.7032 54.0228 93.2471 53.4824C90.4073 71.0594 72.5868 68.1368 80.9414 48.8064L78.3486 49.3491C78.3486 68.2203 63.3678 68.1786 63.3678 57.5322C63.3678 51.1444 68.4712 48.0131 70.282 47.4703C71.7636 47.0111 72.7514 48.7646 71.8459 49.8501C68.9239 53.2319 68.1419 60.079 71.599 60.079C75.4265 60.079 76.1262 52.5222 76.1262 51.0609C74.0684 51.0609 72.1752 45.7586 76.4554 46.6771C77.2374 46.8441 78.0193 46.8023 81.5999 46.5518C90.325 20.082 100.202 26.4698 100.202 33.9432C100.202 41.0198 90.6697 45.4817 87.4316 46.9974C87.1736 47.1181 86.9556 47.2202 86.7856 47.3033C84.8101 50.0171 82.5877 60.747 86.5386 60.747C90.4484 60.747 91.0246 51.4784 91.0246 51.3531C89.2138 50.7269 87.5675 47.7626 90.2015 47.0946C92.3285 46.5466 92.7107 47.7687 93.1201 49.0783C93.2098 49.3651 93.3008 49.6561 93.4117 49.9336C94.029 51.4784 96.2514 51.5619 98.1858 51.4784C100.614 49.1821 105.059 48.0966 106.458 50.8521C108.269 49.0569 110.697 49.3491 110.697 53.0649C110.697 55.6826 109.029 58.9423 108.193 60.5753C108.029 60.8957 107.897 61.1535 107.816 61.3315C107.34 62.3782 108.394 62.3768 109.504 62.3754C109.545 62.3753 109.586 62.3753 109.627 62.3753C110.162 52.7309 125.884 49.1404 125.884 56.2379C125.884 57.6157 124.937 59.2857 123.209 59.2857C121.48 59.2857 121.068 57.6575 121.974 56.9895C122.879 56.3214 122.838 54.6514 121.974 54.6514C119.546 54.6514 116.912 58.9935 116.788 59.244C117.151 59.3053 117.552 59.3441 117.956 59.3831C118.652 59.4504 119.354 59.5182 119.875 59.7032C121.027 60.1625 120.451 61.9578 119.216 61.6238C115.224 60.5382 114.977 65.3813 117.694 65.3813C119.513 65.3813 121.987 64.1139 124.281 62.9389C124.685 62.7317 125.084 62.5275 125.472 62.3335C132.057 39.3707 152.1 28.3486 150.248 43.1283C149.301 50.8939 136.049 54.5262 134.691 54.5262C132.057 58.0332 129.012 67.3018 132.592 68.0116C136.173 68.7213 138.231 60.58 138.477 59.244C133.086 58.2837 139.712 51.2279 140.659 57.6575C141.142 60.992 146.42 60.1796 149.339 59.7302C150.149 59.6057 150.777 59.5091 151.071 59.5362C152.059 59.6197 152.964 60.747 150.289 61.916C147.984 62.918 146.421 66.8426 146.297 69.9321C146.256 71.2264 147.367 72.3119 148.643 72.0614C151.812 71.4769 154.487 64.6298 154.528 64.5045ZM145.556 47.3033C148.273 44.5896 149.26 40.5398 146.791 39.7465C145.104 39.2037 138.683 44.339 135.638 52.0629C138.724 51.5619 143.293 49.5579 145.556 47.3033ZM97.8154 32.0226C97.6096 31.5634 97.0746 31.3129 96.5807 31.4381C91.1069 33.0664 87.5675 44.6731 87.4852 45.1323C93.6175 44.7983 99.6262 36.2812 97.8154 32.0226ZM104.006 59.5126C104.112 59.1197 104.207 58.7696 104.318 58.5342C104.318 58.5342 106.54 54.3592 105.676 53.4824C102.137 49.8919 98.4739 61.2898 101.355 62.1665C103.14 62.7162 103.641 60.8618 104.006 59.5126Z" fill="#FDFDFF"/>
</svg>
