<svg width="942" height="12" viewBox="0 0 942 12" fill="none" xmlns="http://www.w3.org/2000/svg">
<path fill-rule="evenodd" clip-rule="evenodd" d="M936.495 5.50018L941.082 9.62853L940.413 10.3718L935 5.50018L940.413 0.628532L941.082 1.37183L936.495 5.50018Z" fill="#D4A377"/>
<rect x="6" y="5.00024" width="930" height="1" fill="#D4A377"/>
<path d="M465.657 5.49976L470.657 0.999746L475.657 5.49976L470.657 10.4998L465.657 5.49976Z" fill="#1C1C20"/>
<path fill-rule="evenodd" clip-rule="evenodd" d="M470.657 1.4141L466.414 5.65674L470.657 9.89938L474.899 5.65674L470.657 1.4141ZM465 5.65674L470.657 11.3136L476.314 5.65674L470.657 -0.000115871L465 5.65674Z" fill="#D4A377"/>
<path fill-rule="evenodd" clip-rule="evenodd" d="M5.25257 5.50031L0.665512 1.37196L1.33448 0.628662L6.74742 5.50031L1.33448 10.372L0.665512 9.62866L5.25257 5.50031Z" fill="#D4A377"/>
</svg>
