<svg width="292" height="253" viewBox="0 0 292 253" fill="none" xmlns="http://www.w3.org/2000/svg">
<path d="M220.527 165.941L243.539 126.5L220.527 87.0589H266.071L291 43.77L266.071 0.480989H216.213L193.201 39.9221L170.669 0H120.331L97.3196 39.4411L74.7875 0H24.9292L0 43.289L24.9292 86.5779H70.4728L47.9407 126.5L70.9522 165.941H24.9292L0 209.23L24.9292 252.519H74.7875L97.799 213.078L120.811 252.519H170.669L193.68 213.078L216.692 252.519H266.55L291.479 209.23L266.55 165.941H220.527ZM238.745 126.5L215.733 165.941H170.189L147.178 126.5L170.189 87.0589H215.733L238.745 126.5ZM213.815 169.789L193.201 205.382L172.586 169.789H213.815ZM165.875 165.941H124.646L145.26 130.348L165.875 165.941ZM145.26 122.652L124.646 87.0589H165.875L145.26 122.652ZM172.586 83.211L193.201 47.6179L213.815 83.211H172.586ZM218.13 3.84791H263.674L286.685 43.289L263.674 83.211H218.13L195.598 43.289L218.13 3.84791ZM122.728 3.84791H168.272L190.804 43.289L167.792 82.73H122.249L99.7166 43.289L122.728 3.84791ZM118.414 83.211H77.1845L97.799 47.6179L118.414 83.211ZM27.3262 83.211L4.31466 43.289L27.3262 3.84791H72.8699L95.402 43.289L72.3904 82.73H27.3262V83.211ZM52.2554 126.5L75.2669 87.0589H120.811L143.822 126.5L120.811 165.941H75.2669L52.2554 126.5ZM118.414 169.789L97.799 205.382L77.1845 169.789H118.414ZM72.8699 249.152H27.3262L4.31466 209.711L27.3262 170.27H72.8699L95.8814 209.711L72.8699 249.152ZM168.272 249.152H122.728L99.7166 209.711L122.728 170.27H168.272L191.283 209.711L168.272 249.152ZM263.674 249.152H218.13L195.119 209.711L218.13 170.27H263.674L286.685 209.711L263.674 249.152Z" fill="#18181B"/>
</svg>
