<svg width="151" height="159" viewBox="0 0 151 159" fill="none" xmlns="http://www.w3.org/2000/svg">
<path d="M83.5128 40.5414H70.2121C69.7005 40.5414 69.189 40.1577 69.189 39.5182V24.9387C69.189 24.4271 69.5726 23.9155 70.2121 23.9155H83.5128C84.0243 23.9155 84.5359 24.2992 84.5359 24.9387V39.5182C84.5359 40.0298 84.0243 40.5414 83.5128 40.5414ZM71.1073 38.623H82.4896V25.9618H71.1073V38.623Z" fill="white"/>
<path d="M101.929 134.158H51.7957C47.8311 134.158 44.6338 130.961 44.6338 126.996C44.6338 124.182 46.2964 121.497 48.9821 120.346C49.8773 114.335 55.3766 98.732 63.178 88.8843V75.5837H61.1317C60.6202 75.5837 60.1086 75.2 60.1086 74.5605V69.0612C60.1086 68.5496 60.4923 68.0381 61.1317 68.0381H92.7209C93.2324 68.0381 93.744 68.4218 93.744 69.0612V74.6884C93.744 75.2 93.3603 75.7116 92.7209 75.7116H90.6746V89.0122C98.476 98.732 103.975 114.335 104.871 120.346C107.428 121.497 109.219 124.054 109.219 126.996C109.091 130.961 105.894 134.158 101.929 134.158ZM62.027 73.6653H64.0732C64.5848 73.6653 65.0964 74.049 65.0964 74.6884V89.268C65.0964 89.5238 64.9685 89.6517 64.8406 89.9075C57.1671 99.3714 51.412 115.486 50.7726 121.241C50.7726 121.624 50.5168 121.88 50.1331 122.008C47.959 122.776 46.5522 124.694 46.5522 126.996C46.5522 129.937 48.9821 132.239 51.7957 132.239H101.929C104.871 132.239 107.173 129.81 107.173 126.996C107.173 124.694 105.766 122.776 103.592 122.008C103.208 121.88 102.952 121.624 102.952 121.241C102.313 115.614 96.5576 99.3714 88.8841 89.9075C88.7562 89.7796 88.6283 89.5238 88.6283 89.268V74.6884C88.6283 74.1769 89.012 73.6653 89.6515 73.6653H91.6977V69.9565H62.027V73.6653Z" fill="white"/>
<path d="M108.196 127.891C107.685 127.891 107.173 127.507 107.173 126.868C107.173 123.926 104.743 121.624 101.929 121.624H51.7961C48.8546 121.624 46.5526 124.054 46.5526 126.868C46.5526 127.38 46.1689 127.891 45.5295 127.891C44.89 127.891 44.5063 127.507 44.5063 126.868C44.5063 122.903 47.7036 119.706 51.6683 119.706H101.802C105.766 119.706 108.963 122.903 108.963 126.868C109.091 127.507 108.708 127.891 108.196 127.891Z" fill="white"/>
<path d="M92.7211 69.9566H61.0041C60.4925 69.9566 59.981 69.5729 59.981 68.9334C59.981 59.2137 70.468 56.6559 76.7347 56.6559C83.0014 56.6559 93.4884 59.2137 93.4884 68.9334C93.6163 69.5729 93.2327 69.9566 92.7211 69.9566ZM62.0272 68.0382H91.5701C90.9306 60.6205 82.1061 58.5743 76.7347 58.5743C71.6191 58.7021 62.7946 60.6205 62.0272 68.0382Z" fill="white"/>
<path d="M84.9197 53.0749H68.8055C64.8408 53.0749 61.6436 49.8776 61.6436 45.913C61.6436 41.9484 64.8408 38.7511 68.8055 38.7511H84.9197C88.8844 38.7511 92.0816 41.9484 92.0816 45.913C92.0816 49.7497 88.8844 53.0749 84.9197 53.0749ZM68.8055 40.5416C65.864 40.5416 63.5619 42.9715 63.5619 45.7851C63.5619 48.7266 65.9919 51.0287 68.8055 51.0287H84.9197C87.8612 51.0287 90.1633 48.5987 90.1633 45.7851C90.1633 42.8436 87.7334 40.5416 84.9197 40.5416H68.8055Z" fill="white"/>
<path d="M96.0463 158.329C95.6626 158.329 95.279 158.329 94.8953 158.329C93.8721 158.329 93.1048 157.562 92.3375 156.795C91.9538 156.411 91.4422 155.899 91.1864 155.771C89.9075 155.388 89.2681 155.516 88.5007 156.027C87.6055 156.667 86.4545 157.05 85.3034 157.05C83.513 157.05 81.8504 156.155 80.8273 154.748C79.0368 152.318 79.6762 148.865 82.1062 147.075C84.0245 145.796 86.5824 145.796 88.5007 147.075C89.2681 147.586 90.0354 147.714 91.1864 147.331C91.4422 147.203 91.9538 146.691 92.3375 146.308C93.1048 145.54 93.8721 144.773 94.8953 144.773C95.9184 144.645 97.3252 144.773 98.6041 144.901C99.4994 145.029 100.395 145.284 101.29 145.54L102.185 145.796C104.231 146.308 106.278 146.435 108.452 146.563H109.091C111.137 146.691 113.439 146.691 115.997 146.563H116.253C117.148 146.563 118.171 146.308 119.195 146.052C120.474 145.668 121.88 145.284 123.159 145.412C124.438 145.412 125.717 145.668 126.868 145.924L127.635 146.052C128.659 146.308 129.682 146.563 130.705 147.075C131.728 147.586 132.751 147.97 133.774 147.97C134.925 147.97 136.076 147.331 136.971 146.819C137.995 146.18 139.401 145.54 140.936 145.412H141.192C142.854 145.412 144.133 146.052 145.157 147.331C147.203 149.761 147.203 153.086 145.157 155.516C144.005 156.795 142.727 157.434 141.064 157.434H140.808C139.274 157.306 137.867 156.667 136.844 156.027C135.948 155.516 134.797 155.004 133.774 154.876C133.646 154.876 133.518 154.876 133.518 154.876C132.623 154.876 131.728 155.26 130.705 155.771C129.682 156.283 128.659 156.539 127.635 156.795L126.996 156.922C125.589 157.306 124.438 157.434 123.287 157.434C123.159 157.434 122.903 157.434 122.776 157.434C121.625 157.434 120.474 157.05 119.322 156.795C118.299 156.539 117.276 156.283 116.381 156.283H116.253C113.44 156.155 111.265 156.155 109.219 156.283H108.58C106.405 156.411 104.359 156.539 102.313 157.05L101.418 157.306C100.522 157.562 99.6273 157.69 98.732 157.946C97.8368 158.329 96.9415 158.329 96.0463 158.329ZM90.0354 153.725C90.547 153.725 91.1864 153.853 91.8259 153.981C92.5932 154.237 93.2327 154.876 93.8722 155.388C94.2558 155.771 94.8953 156.411 95.0232 156.411C95.4068 156.411 95.7905 156.411 96.0463 156.411C96.8136 156.411 97.581 156.411 98.3483 156.283C99.2436 156.155 100.139 155.899 100.906 155.771L101.801 155.516C103.976 154.876 106.278 154.748 108.324 154.62H108.963C111.137 154.493 113.44 154.493 116.125 154.62H116.253C117.404 154.62 118.555 155.004 119.706 155.26C120.857 155.644 122.008 155.899 123.031 155.771H123.159C124.182 155.771 125.205 155.516 126.484 155.26L127.252 155.132C128.147 154.876 129.042 154.748 129.937 154.365C131.216 153.725 132.623 153.214 134.03 153.342C135.437 153.469 136.844 154.109 137.995 154.748C138.89 155.26 140.041 155.899 141.064 155.899H141.192C141.959 155.899 142.854 155.771 143.75 154.62C145.157 152.958 145.157 150.656 143.75 148.993C142.854 147.842 141.959 147.714 141.192 147.714H140.936C139.913 147.714 138.762 148.354 137.867 148.865C136.844 149.505 135.437 150.144 133.902 150.272C133.774 150.272 133.646 150.272 133.518 150.272C132.24 150.272 131.088 149.761 129.937 149.249C129.042 148.865 128.275 148.61 127.252 148.482L126.484 148.354C125.205 148.098 124.182 147.842 123.159 147.842C122.903 147.842 122.776 147.842 122.648 147.842C121.752 147.842 120.729 148.098 119.706 148.354C118.555 148.61 117.404 148.993 116.253 148.993H115.997C113.439 149.121 111.137 149.121 108.835 148.993H108.196C106.022 148.865 103.848 148.737 101.674 148.098L100.778 147.842C100.011 147.586 99.1157 147.459 98.2205 147.331C97.0694 147.203 96.0463 147.075 94.8953 147.203C94.5116 147.203 93.8721 147.842 93.6164 148.226C92.9769 148.865 92.3375 149.505 91.5701 149.761C89.9075 150.272 88.5007 150.016 87.2218 149.249C86.0708 148.354 84.2803 148.354 83.1293 149.249C81.5946 150.4 81.2109 152.574 82.362 154.237C83.513 155.771 85.815 156.155 87.3497 155.132C88.1171 153.981 89.0123 153.725 90.0354 153.725Z" fill="white"/>
<path d="M97.0694 25.962H56.6558C55.7605 25.962 54.4816 25.5783 53.7143 25.1946L47.8313 21.3579C46.936 20.7185 47.0639 20.079 47.0639 19.8232C47.1918 19.4395 47.5755 18.928 48.7265 18.928H104.871C106.022 18.928 106.405 19.4395 106.533 19.8232C106.661 20.079 106.661 20.7185 105.766 21.3579L99.883 25.1946C99.2435 25.5783 97.9646 25.962 97.0694 25.962ZM50.6449 20.7185L54.8653 23.5321C55.249 23.7878 56.1442 24.0436 56.6558 24.0436H97.0694C97.7088 24.0436 98.6041 23.7878 98.8599 23.5321L103.08 20.7185H50.6449Z" fill="white"/>
<path d="M85.5592 20.7184H68.166C67.9102 20.7184 67.6544 20.5905 67.3986 20.3347C67.2707 20.0789 67.1428 19.8231 67.2707 19.5673L68.4217 14.7075C67.0149 13.6844 66.1197 12.1497 66.1197 10.3592C66.1197 9.20816 66.5034 8.18503 67.1428 7.2898C66.2476 6.13878 65.3524 4.85986 64.585 3.58095C63.9456 2.68571 63.9456 1.79048 64.3292 1.15102C64.7129 0.383673 65.4802 0 66.5034 0H87.3496C88.3728 0 89.1401 0.383673 89.5238 1.15102C89.9075 1.79048 89.9075 2.68571 89.3959 3.58095C88.5007 4.98776 87.7333 6.26667 86.8381 7.2898C87.4775 8.18503 87.8612 9.20816 87.8612 10.3592C87.8612 12.1497 86.966 13.8122 85.5592 14.7075L86.7102 19.5673C86.8381 19.8231 86.7102 20.2068 86.5823 20.3347C86.0707 20.5905 85.8149 20.7184 85.5592 20.7184ZM69.4449 18.8H84.4081L83.385 14.4517C83.2571 14.068 83.5129 13.5565 83.8966 13.4286C85.0476 12.917 85.8149 11.6381 85.8149 10.3592C85.8149 9.46395 85.4313 8.56871 84.7918 7.92925C84.4081 7.67347 84.4081 7.03401 84.6639 6.65034C85.687 5.49932 86.7102 4.09252 87.6054 2.42993C87.7333 2.17415 87.7333 2.04626 87.7333 1.91837C87.7333 1.91837 87.6054 1.79048 87.2217 1.79048H66.5034C66.1197 1.79048 65.9918 1.91837 65.9918 1.91837C65.9918 1.91837 65.9918 2.04626 66.1197 2.42993C67.0149 3.96463 68.0381 5.37143 69.0612 6.65034C69.4449 7.03401 69.317 7.54558 68.9333 7.92925C68.2939 8.56871 67.9102 9.46395 67.9102 10.3592C67.9102 11.6381 68.6775 12.7891 69.8285 13.4286C70.2122 13.6844 70.468 14.068 70.3401 14.4517L69.4449 18.8Z" fill="white"/>
<path d="M92.7211 69.9565H61.0041C60.4925 69.9565 59.981 69.5728 59.981 68.9333C59.981 67.1429 60.3647 65.4803 61.132 64.0735L53.9701 58.4463C53.7143 58.3184 53.5864 58.0626 53.5864 57.8068C53.5864 57.551 53.7143 57.2952 53.8422 57.0394L59.5973 51.2843C59.8531 51.0286 60.1089 51.0286 60.3647 51.0286C60.6204 51.0286 60.8762 51.1565 61.0041 51.4122L66.7592 58.8299C67.015 58.702 67.3987 58.5741 67.6545 58.4463V52.0517C67.6545 51.5401 68.0381 51.0286 68.6776 51.0286H84.9198C85.4313 51.0286 85.9429 51.4122 85.9429 52.0517V58.4463C86.1987 58.5741 86.5823 58.702 86.8381 58.8299L92.5932 51.4122C92.7211 51.1565 92.9769 51.0286 93.2327 51.0286C93.4885 51.0286 93.7442 51.1565 94 51.2843L99.7551 57.0394C100.011 57.2952 100.011 57.551 100.011 57.8068C100.011 58.0626 99.883 58.3184 99.6272 58.4463L92.4653 64.0735C93.2327 65.4803 93.6164 67.1429 93.6164 68.9333C93.6164 69.5728 93.2327 69.9565 92.7211 69.9565ZM62.0272 68.0381H91.5701C91.4422 66.6313 91.0585 65.4803 90.4191 64.3292C90.1633 63.9456 90.2912 63.3061 90.6749 63.0503L97.7089 57.6789L93.4885 53.4585L87.8613 60.6204C87.6055 61.0041 87.0939 61.132 86.5823 60.8762C85.815 60.4925 85.1755 60.1088 84.5361 59.9809C84.1524 59.8531 83.8966 59.4694 83.8966 59.0857V52.9469H69.7007V59.0857C69.7007 59.4694 69.4449 59.8531 69.0613 59.9809C68.4218 60.2367 67.7823 60.4925 67.015 60.8762C66.6313 61.132 66.1198 61.0041 65.7361 60.6204L60.1089 53.4585L55.8885 57.6789L62.9225 63.0503C63.3062 63.3061 63.434 63.9456 63.1783 64.3292C62.5388 65.4803 62.1551 66.7592 62.0272 68.0381Z" fill="white"/>
<path d="M54.6097 58.7021C54.3539 58.7021 54.0981 58.5742 53.9702 58.4463C52.9471 57.551 52.4355 56.2721 52.4355 54.8653C52.4355 52.0517 54.7376 49.8776 57.4233 49.8776C59.0859 49.8776 60.6206 50.7728 61.6437 52.1796C61.7716 52.3075 61.8995 52.5633 61.8995 52.8191C61.8995 53.3306 61.5158 53.8422 60.8764 53.8422C60.6206 53.8422 60.3648 53.7143 60.2369 53.5864L55.2492 58.5742C55.1213 58.7021 54.8655 58.7021 54.6097 58.7021ZM57.4233 51.7959C55.7607 51.7959 54.3539 53.2027 54.3539 54.8653C54.3539 55.3769 54.4818 55.8884 54.7376 56.2721L58.958 52.0517C58.4464 51.9238 57.9349 51.7959 57.4233 51.7959Z" fill="white"/>
<path d="M149.505 154.365L145.412 153.981C145.156 153.981 144.901 153.853 144.773 153.597C144.645 153.341 144.517 153.086 144.645 152.83C144.901 152.063 144.901 151.295 144.645 150.656C144.517 150.4 144.645 150.144 144.773 149.888C144.901 149.633 145.156 149.505 145.412 149.505L149.377 149.121C149.633 149.121 149.888 149.121 150.144 149.377C150.4 149.505 150.4 149.761 150.4 150.144V153.725C150.4 153.981 150.272 154.237 150.144 154.493C150.016 154.237 149.761 154.365 149.505 154.365ZM146.691 152.19L148.61 152.446V150.912L146.691 151.167C146.691 151.423 146.691 151.807 146.691 152.19ZM81.2109 154.365H25.834C11.6381 154.365 0 142.727 0 128.531C0 114.335 11.6381 102.697 25.834 102.697H55.5048C55.8884 102.697 56.1442 102.824 56.2721 103.08C56.4 103.336 56.5279 103.72 56.4 103.975C55.8884 105.127 55.3769 106.278 54.8653 107.429C54.7374 107.812 54.3537 108.068 53.9701 108.068H25.834C14.5796 108.068 5.37143 117.276 5.37143 128.531C5.37143 139.785 14.5796 148.993 25.834 148.993H81.083C81.4667 148.993 81.7225 149.121 81.8503 149.377C81.9782 149.633 82.1061 150.016 81.9782 150.272C81.5946 151.167 81.5946 152.19 81.9782 153.086C82.1061 153.341 82.1061 153.725 81.8503 153.981C81.7225 154.237 81.4667 154.365 81.2109 154.365ZM25.834 104.615C12.6612 104.615 1.91837 115.358 1.91837 128.531C1.91837 141.703 12.6612 152.446 25.834 152.446H79.932C79.8041 151.935 79.8041 151.423 79.932 150.912H25.834C13.5565 150.912 3.45306 140.936 3.45306 128.531C3.45306 116.253 13.4286 106.15 25.834 106.15H53.3306C53.5864 105.638 53.7143 105.127 53.9701 104.615H25.834ZM113.439 108.068H99.7551C99.3714 108.068 98.9878 107.812 98.8599 107.429C98.3483 106.278 97.8367 105.127 97.3252 103.975C97.1973 103.72 97.1973 103.336 97.4531 103.08C97.581 102.824 97.9646 102.697 98.2204 102.697H113.439C126.356 102.697 136.844 92.2095 136.844 79.2925V68.2939C136.844 56.9115 127.507 47.5755 116.125 47.5755C109.091 47.5755 104.231 51.0285 98.2204 57.0394C98.0925 57.1673 97.8367 57.2952 97.581 57.2952C97.3252 57.2952 97.0694 57.1673 96.9415 57.0394L94.5116 54.6095C94.1279 54.2258 94.1279 53.5864 94.5116 53.2027C100.011 47.5755 106.278 42.0762 116.253 42.0762C130.705 42.0762 142.471 53.8422 142.471 68.2939V79.2925C142.215 95.151 129.298 108.068 113.439 108.068ZM100.395 106.15H113.439C128.275 106.15 140.425 94.1279 140.425 79.1646V68.166C140.425 54.7374 129.554 43.8666 116.125 43.8666C107.301 43.8666 101.546 48.5986 96.4299 53.7143L97.581 54.8653C102.441 50.0054 107.94 45.5292 116.125 45.5292C128.659 45.5292 138.762 55.6326 138.762 68.166V79.1646C138.762 93.1047 127.38 104.487 113.439 104.487H99.7551C99.883 105.127 100.139 105.638 100.395 106.15Z" fill="white"/>
</svg>
