<svg width="285" height="256" viewBox="0 0 285 256" fill="none" xmlns="http://www.w3.org/2000/svg">
<path fill-rule="evenodd" clip-rule="evenodd" d="M117.5 19.9877C122.791 19.7272 127 15.3552 127 10C127 4.47715 122.523 0 117 0C111.477 0 107 4.47715 107 10C107 15.3552 111.209 19.7272 116.5 19.9877V59.0042C100.714 59.2711 88 72.1507 88 88C88 90.0543 88.2136 92.0586 88.6198 93.9921C77.0025 99.1507 67.0506 107.379 59.794 117.648L21.5 76.7339V186H0V187H21.5V202.5H22.5V187H53.2709C64.2302 211.045 88.3973 227.802 116.5 227.998V256H117.5V227.998C145.603 227.802 169.77 211.045 180.729 187H211.5V202.5H212.5V187H284.5V186H212.5V76.7339L174.206 117.648C166.949 107.379 156.998 99.1507 145.38 93.9921C145.786 92.0586 146 90.0543 146 88C146 72.1507 133.286 59.2711 117.5 59.0042V19.9877ZM126 10C126 14.9706 121.971 19 117 19C112.029 19 108 14.9706 108 10C108 5.02944 112.029 1 117 1C121.971 1 126 5.02944 126 10ZM211.5 87.2611V186H181.175C184.922 177.426 187 167.955 187 158C187 145.318 183.627 133.423 177.73 123.164L211.5 87.2611ZM211.5 85.8016V79.2657L174.79 118.487C175.633 119.719 176.439 120.978 177.204 122.264L211.5 85.8016ZM176.49 123.022C175.73 121.733 174.93 120.47 174.09 119.236L117.5 179.697V185.738L176.49 123.022ZM177.013 123.926L118.627 186H180.082C183.886 177.443 186 167.968 186 158C186 145.607 182.733 133.978 177.013 123.926ZM117.5 187.198L117.686 187H179.628C168.739 210.477 145.037 226.803 117.5 226.998V187.198ZM145.153 94.9859C156.592 100.104 166.382 108.246 173.508 118.394L117.5 178.234V116.996C130.887 116.769 142.065 107.472 145.153 94.9859ZM22.5 79.2657L59.21 118.487C58.3666 119.719 57.5615 120.978 56.7964 122.264L22.5 85.8016V79.2657ZM22.5 87.2611L56.2701 123.164C50.3727 133.423 47 145.318 47 158C47 167.955 49.0783 177.426 52.8246 186H22.5V87.2611ZM56.9866 123.926C51.267 133.978 48 145.607 48 158C48 167.968 50.1138 177.443 53.9177 186H115.373L56.9866 123.926ZM116.314 187L116.5 187.198V226.998C88.9635 226.803 65.2613 210.477 54.3718 187H116.314ZM116.5 185.738L57.5098 123.022C58.2697 121.733 59.0705 120.47 59.9102 119.236L116.5 179.697V185.738ZM60.492 118.394L116.5 178.234V116.996C103.113 116.769 91.9352 107.472 88.847 94.9859C77.4084 100.104 67.618 108.246 60.492 118.394ZM116.5 60.0044C101.267 60.2711 89 72.703 89 88C89 89.9122 89.1917 91.7797 89.5569 93.5842C97.8395 90.051 106.942 88.0686 116.5 88.0017V60.0044ZM117.5 88.0017V60.0044C132.733 60.2711 145 72.703 145 88C145 89.9122 144.808 91.7797 144.443 93.5842C136.16 90.051 127.058 88.0686 117.5 88.0017ZM116.5 89.0018C107.015 89.0691 97.9851 91.0501 89.777 94.578C92.6986 106.713 103.523 115.768 116.5 115.996V89.0018ZM117.5 115.996V89.0018C126.985 89.0691 136.015 91.0501 144.223 94.578C141.301 106.713 130.477 115.768 117.5 115.996Z" fill="#D4A377"/>
</svg>
