<svg width="268" height="320" viewBox="0 0 268 320" fill="none" xmlns="http://www.w3.org/2000/svg">
<path d="M134.5 165V201.5H133.5V165H134.5Z" fill="#D4A377"/>
<path fill-rule="evenodd" clip-rule="evenodd" d="M134.5 47.0012V0H133.5V47.0012C106.737 47.1272 82.363 57.3621 63.9999 74.0835L41.3735 48.6675L40.6266 49.3325L63.2637 74.7605C43.1433 93.437 30.4279 119.981 30.0106 149.5H0V150.5H30.0012L30.0003 150.739L30 151C30 178.826 40.928 204.1 58.7265 222.763L58.6396 222.847L132.825 300H118V301H133.5V319.5H134.5V301H150.5V300H134.696L207.359 224.848L207.293 224.784C226.258 205.945 238 179.844 238 151L238 150.757L237.999 150.5H268V149.5H237.989C237.617 123.13 227.43 99.134 210.917 81L236.332 58.3735L235.668 57.6267L210.24 80.2637C191.352 59.9163 164.419 47.1421 134.5 47.0012ZM198.433 232.641L134.5 298.764V254.999C158.641 254.885 180.838 246.546 198.433 232.641ZM133.5 299.259V254.999C109.12 254.884 86.7233 246.381 69.0464 232.227L133.5 299.259ZM236.989 149.5C236.617 123.385 226.525 99.6223 210.169 81.665L179.543 108.93C189.443 119.642 195.611 133.854 195.982 149.5H236.989ZM194.982 149.5H164V150.5H194.998L194.998 150.561L195 150.834L195 151C195 184.689 167.689 212 134 212C100.311 212 73 184.689 73 151L73.0007 150.711L73.002 150.5H104V149.5H73.0181C73.4223 132.751 80.5774 117.675 91.8662 106.889L113.627 131.333L114.373 130.667L92.5951 106.204C103.358 96.2512 117.715 90.1287 133.5 90.002V127.5H134.5V90.002C151.648 90.1396 167.111 97.3533 178.111 108.866L153.668 130.627L154.332 131.374L178.796 109.595C188.538 120.13 194.61 134.109 194.982 149.5ZM195.998 150.5H236.999L236.999 150.643L237 151C237 207.719 191.155 253.729 134.5 253.999V213H134C168.242 213 196 185.242 196 151L195.999 150.708L195.998 150.5ZM134 213H133.5V253.999C76.8447 253.729 31 207.719 31 151L31.0004 150.702L31.0012 150.5H72.002C72.0011 150.613 72.0005 150.727 72.0002 150.84L72 151C72 185.242 99.7584 213 134 213ZM31.0107 149.5H72.0178C72.4225 132.454 79.7068 117.112 91.2009 106.142L63.9288 75.5076C44.0139 94.0007 31.4278 120.278 31.0107 149.5ZM209.492 80.9287C190.788 60.7869 164.122 48.1421 134.5 48.0012V89.002C151.945 89.1396 167.674 96.4824 178.858 108.201L209.492 80.9287ZM64.6649 74.8306L91.9301 105.457C102.87 95.3469 117.459 89.1287 133.5 89.002V48.0012C106.992 48.1272 82.8513 58.2664 64.6649 74.8306Z" fill="#D4A377"/>
<path fill-rule="evenodd" clip-rule="evenodd" d="M155.429 146.7C148.389 138.638 130.314 127.312 113.571 146.7C113.19 147.084 113 147.276 113 147.468C113 147.66 113.19 147.852 113.571 148.236C132.407 169.735 151.243 153.227 155.429 148.236C155.81 147.852 156 147.66 156 147.468C156 147.276 155.81 147.084 155.429 146.7ZM154.676 147.358L154.697 147.382L154.782 147.468L154.719 147.532L154.69 147.562L154.663 147.593C152.646 149.998 147.052 155.214 139.731 157.205C136.093 158.195 132.038 158.386 127.767 157.053C123.494 155.72 118.934 152.84 114.323 147.577L114.303 147.554L114.281 147.532L114.218 147.468L114.305 147.38L114.328 147.354C117.057 144.193 119.809 141.882 122.528 140.255C122.509 140.492 122.5 140.741 122.5 141C122.5 147.351 127.649 152.5 134 152.5C140.351 152.5 145.5 147.351 145.5 141C145.5 140.677 145.488 140.372 145.464 140.084C149.329 142.137 152.528 144.898 154.676 147.358ZM144.388 139.54C144.461 139.956 144.5 140.439 144.5 141C144.5 146.799 139.799 151.5 134 151.5C128.201 151.5 123.5 146.799 123.5 141C123.5 140.481 123.542 140.03 123.618 139.638C128.645 136.956 133.538 136.555 137.953 137.389C140.225 137.818 142.386 138.578 144.388 139.54Z" fill="#D4A377"/>
</svg>
