<svg width="123" height="20" viewBox="0 0 123 20" fill="none" xmlns="http://www.w3.org/2000/svg">
<mask id="mask0" mask-type="alpha" maskUnits="userSpaceOnUse" x="103" y="0" width="20" height="19">
<path d="M112.857 0L115.796 5.95492L122.368 6.90983L117.612 11.5451L118.735 18.0902L112.857 15L106.979 18.0902L108.102 11.5451L103.347 6.90983L109.918 5.95492L112.857 0Z" fill="#121214"/>
</mask>
<g mask="url(#mask0)">
<path d="M112.857 1.12978L115.348 6.1762L115.464 6.41192L115.724 6.44972L121.293 7.25895L117.263 11.187L117.075 11.3705L117.12 11.6296L118.071 17.1762L113.09 14.5574L112.857 14.4351L112.624 14.5574L107.643 17.1762L108.595 11.6296L108.639 11.3705L108.451 11.187L104.421 7.25895L109.99 6.44972L110.25 6.41192L110.367 6.1762L112.857 1.12978Z" stroke="#D4A377"/>
<rect x="103" y="-2" width="12" height="23" fill="#D4A377"/>
</g>
<path d="M87.1429 0L90.0818 5.95492L96.6534 6.90983L91.8982 11.5451L93.0207 18.0902L87.1429 15L81.265 18.0902L82.3876 11.5451L77.6323 6.90983L84.204 5.95492L87.1429 0Z" fill="#D4A377"/>
<path d="M61.4286 0L64.3675 5.95492L70.9392 6.90983L66.1839 11.5451L67.3064 18.0902L61.4286 15L55.5507 18.0902L56.6733 11.5451L51.918 6.90983L58.4897 5.95492L61.4286 0Z" fill="#D4A377"/>
<path d="M35.7143 0L38.6532 5.95492L45.2249 6.90983L40.4696 11.5451L41.5921 18.0902L35.7143 15L29.8364 18.0902L30.959 11.5451L26.2037 6.90983L32.7754 5.95492L35.7143 0Z" fill="#D4A377"/>
<path d="M10 0L12.9389 5.95492L19.5106 6.90983L14.7553 11.5451L15.8779 18.0902L10 15L4.12215 18.0902L5.24472 11.5451L0.489435 6.90983L7.06107 5.95492L10 0Z" fill="#D4A377"/>
</svg>
