<svg width="12" height="12" viewBox="0 0 12 12" fill="none" xmlns="http://www.w3.org/2000/svg">
<path fill-rule="evenodd" clip-rule="evenodd" d="M2.54271 9.8715L1.06062 11.3536L0.353516 10.6465L1.8356 9.1644C1.13024 8.30246 0.707047 7.20065 0.707047 6C0.707047 3.23858 2.94562 1 5.70705 1C6.9077 1 8.00951 1.42319 8.87145 2.12855L10.3535 0.646484L11.0606 1.35359L9.57855 2.83567C10.2839 3.6976 10.707 4.79938 10.707 6C10.707 8.76142 8.46847 11 5.70705 11C4.50643 11 3.40464 10.5768 2.54271 9.8715ZM3.25426 9.15996C3.9316 9.68647 4.78271 10 5.70705 10C7.91619 10 9.70705 8.20914 9.70705 6C9.70705 5.07566 9.39352 4.22455 8.867 3.54721L3.25426 9.15996ZM8.1599 2.8401C7.48255 2.31355 6.63142 2 5.70705 2C3.49791 2 1.70705 3.79086 1.70705 6C1.70705 6.92437 2.0206 7.77551 2.54714 8.45286L8.1599 2.8401Z" fill="#AEA8A3"/>
</svg>
