<svg width="60" height="60" viewBox="0 0 60 60" fill="none" xmlns="http://www.w3.org/2000/svg">
<path fill-rule="evenodd" clip-rule="evenodd" d="M58 30C58 45.464 45.464 58 30 58C14.536 58 2 45.464 2 30C2 14.536 14.536 2 30 2C45.464 2 58 14.536 58 30ZM60 30C60 46.5685 46.5685 60 30 60C13.4315 60 0 46.5685 0 30C0 13.4315 13.4315 0 30 0C46.5685 0 60 13.4315 60 30ZM11.4694 27.5208H9.57359C9.55275 26.0625 10.2194 24.7083 11.2611 23.8125C12.1778 23.0208 13.3861 22.6875 14.5944 22.6875C15.9278 22.6875 17.1569 23.1458 18.0319 24.0833C18.9486 24.9583 19.4694 26.2292 19.4694 27.5417C19.4694 29.4583 18.7194 30.5625 17.1986 31.9167L12.3861 36.2083H19.2611V37.9792H9.46942L9.49025 36.2083L16.1778 30.3333C17.2819 29.3542 17.5736 28.4792 17.5736 27.5208C17.5736 26.6667 17.2194 25.8542 16.6153 25.2917C16.0736 24.75 15.3236 24.4583 14.5111 24.4583C13.7611 24.4583 13.0736 24.7292 12.5528 25.1667C11.8861 25.75 11.4694 26.6042 11.4694 27.5208ZM29.8783 29.25V33.4792H31.4408V35.2292H29.8783V38H28.0033V35.2292H21.1491V33.4792L26.1074 23H28.0449L23.1074 33.4792H28.0033V29.25H29.8783ZM37.7611 23L33.7611 38H35.6361L39.6361 23H37.7611ZM45.1387 38H43.2429L48.6387 24.7708H41.722V23H50.5345V24.7708L45.1387 38Z" fill="#B7B7B7"/>
</svg>
