<svg width="274" height="4" viewBox="0 0 274 4" fill="none" xmlns="http://www.w3.org/2000/svg">
<path fill-rule="evenodd" clip-rule="evenodd" d="M11 3C11.5523 3 12 2.55228 12 2C12 1.44772 11.5523 1 11 1C10.4477 1 10 1.44772 10 2C10 2.55228 10.4477 3 11 3ZM11 4C12.1046 4 13 3.10457 13 2C13 0.895431 12.1046 0 11 0C9.89543 0 9 0.895431 9 2C9 3.10457 9.89543 4 11 4Z" fill="#3F3B37"/>
<path fill-rule="evenodd" clip-rule="evenodd" d="M20 3C20.5523 3 21 2.55228 21 2C21 1.44772 20.5523 1 20 1C19.4477 1 19 1.44772 19 2C19 2.55228 19.4477 3 20 3ZM20 4C21.1046 4 22 3.10457 22 2C22 0.895431 21.1046 0 20 0C18.8954 0 18 0.895431 18 2C18 3.10457 18.8954 4 20 4Z" fill="#3F3B37"/>
<path fill-rule="evenodd" clip-rule="evenodd" d="M29 3C29.5523 3 30 2.55228 30 2C30 1.44772 29.5523 1 29 1C28.4477 1 28 1.44772 28 2C28 2.55228 28.4477 3 29 3ZM29 4C30.1046 4 31 3.10457 31 2C31 0.895431 30.1046 0 29 0C27.8954 0 27 0.895431 27 2C27 3.10457 27.8954 4 29 4Z" fill="#3F3B37"/>
<path fill-rule="evenodd" clip-rule="evenodd" d="M38 3C38.5523 3 39 2.55228 39 2C39 1.44772 38.5523 1 38 1C37.4477 1 37 1.44772 37 2C37 2.55228 37.4477 3 38 3ZM38 4C39.1046 4 40 3.10457 40 2C40 0.895431 39.1046 0 38 0C36.8954 0 36 0.895431 36 2C36 3.10457 36.8954 4 38 4Z" fill="#3F3B37"/>
<path fill-rule="evenodd" clip-rule="evenodd" d="M47 3C47.5523 3 48 2.55228 48 2C48 1.44772 47.5523 1 47 1C46.4477 1 46 1.44772 46 2C46 2.55228 46.4477 3 47 3ZM47 4C48.1046 4 49 3.10457 49 2C49 0.895431 48.1046 0 47 0C45.8954 0 45 0.895431 45 2C45 3.10457 45.8954 4 47 4Z" fill="#3F3B37"/>
<path fill-rule="evenodd" clip-rule="evenodd" d="M56 3C56.5523 3 57 2.55228 57 2C57 1.44772 56.5523 1 56 1C55.4477 1 55 1.44772 55 2C55 2.55228 55.4477 3 56 3ZM56 4C57.1046 4 58 3.10457 58 2C58 0.895431 57.1046 0 56 0C54.8954 0 54 0.895431 54 2C54 3.10457 54.8954 4 56 4Z" fill="#3F3B37"/>
<path fill-rule="evenodd" clip-rule="evenodd" d="M65 3C65.5523 3 66 2.55228 66 2C66 1.44772 65.5523 1 65 1C64.4477 1 64 1.44772 64 2C64 2.55228 64.4477 3 65 3ZM65 4C66.1046 4 67 3.10457 67 2C67 0.895431 66.1046 0 65 0C63.8954 0 63 0.895431 63 2C63 3.10457 63.8954 4 65 4Z" fill="#3F3B37"/>
<path fill-rule="evenodd" clip-rule="evenodd" d="M74 3C74.5523 3 75 2.55228 75 2C75 1.44772 74.5523 1 74 1C73.4477 1 73 1.44772 73 2C73 2.55228 73.4477 3 74 3ZM74 4C75.1046 4 76 3.10457 76 2C76 0.895431 75.1046 0 74 0C72.8954 0 72 0.895431 72 2C72 3.10457 72.8954 4 74 4Z" fill="#3F3B37"/>
<path fill-rule="evenodd" clip-rule="evenodd" d="M83 3C83.5523 3 84 2.55228 84 2C84 1.44772 83.5523 1 83 1C82.4477 1 82 1.44772 82 2C82 2.55228 82.4477 3 83 3ZM83 4C84.1046 4 85 3.10457 85 2C85 0.895431 84.1046 0 83 0C81.8954 0 81 0.895431 81 2C81 3.10457 81.8954 4 83 4Z" fill="#3F3B37"/>
<path fill-rule="evenodd" clip-rule="evenodd" d="M92 3C92.5523 3 93 2.55228 93 2C93 1.44772 92.5523 1 92 1C91.4477 1 91 1.44772 91 2C91 2.55228 91.4477 3 92 3ZM92 4C93.1046 4 94 3.10457 94 2C94 0.895431 93.1046 0 92 0C90.8954 0 90 0.895431 90 2C90 3.10457 90.8954 4 92 4Z" fill="#3F3B37"/>
<path fill-rule="evenodd" clip-rule="evenodd" d="M101 3C101.552 3 102 2.55228 102 2C102 1.44772 101.552 1 101 1C100.448 1 100 1.44772 100 2C100 2.55228 100.448 3 101 3ZM101 4C102.105 4 103 3.10457 103 2C103 0.895431 102.105 0 101 0C99.8954 0 99 0.895431 99 2C99 3.10457 99.8954 4 101 4Z" fill="#3F3B37"/>
<path fill-rule="evenodd" clip-rule="evenodd" d="M110 3C110.552 3 111 2.55228 111 2C111 1.44772 110.552 1 110 1C109.448 1 109 1.44772 109 2C109 2.55228 109.448 3 110 3ZM110 4C111.105 4 112 3.10457 112 2C112 0.895431 111.105 0 110 0C108.895 0 108 0.895431 108 2C108 3.10457 108.895 4 110 4Z" fill="#3F3B37"/>
<path fill-rule="evenodd" clip-rule="evenodd" d="M119 3C119.552 3 120 2.55228 120 2C120 1.44772 119.552 1 119 1C118.448 1 118 1.44772 118 2C118 2.55228 118.448 3 119 3ZM119 4C120.105 4 121 3.10457 121 2C121 0.895431 120.105 0 119 0C117.895 0 117 0.895431 117 2C117 3.10457 117.895 4 119 4Z" fill="#3F3B37"/>
<path fill-rule="evenodd" clip-rule="evenodd" d="M128 3C128.552 3 129 2.55228 129 2C129 1.44772 128.552 1 128 1C127.448 1 127 1.44772 127 2C127 2.55228 127.448 3 128 3ZM128 4C129.105 4 130 3.10457 130 2C130 0.895431 129.105 0 128 0C126.895 0 126 0.895431 126 2C126 3.10457 126.895 4 128 4Z" fill="#3F3B37"/>
<path fill-rule="evenodd" clip-rule="evenodd" d="M137 3C137.552 3 138 2.55228 138 2C138 1.44772 137.552 1 137 1C136.448 1 136 1.44772 136 2C136 2.55228 136.448 3 137 3ZM137 4C138.105 4 139 3.10457 139 2C139 0.895431 138.105 0 137 0C135.895 0 135 0.895431 135 2C135 3.10457 135.895 4 137 4Z" fill="#3F3B37"/>
<path fill-rule="evenodd" clip-rule="evenodd" d="M146 3C146.552 3 147 2.55228 147 2C147 1.44772 146.552 1 146 1C145.448 1 145 1.44772 145 2C145 2.55228 145.448 3 146 3ZM146 4C147.105 4 148 3.10457 148 2C148 0.895431 147.105 0 146 0C144.895 0 144 0.895431 144 2C144 3.10457 144.895 4 146 4Z" fill="#3F3B37"/>
<path fill-rule="evenodd" clip-rule="evenodd" d="M155 3C155.552 3 156 2.55228 156 2C156 1.44772 155.552 1 155 1C154.448 1 154 1.44772 154 2C154 2.55228 154.448 3 155 3ZM155 4C156.105 4 157 3.10457 157 2C157 0.895431 156.105 0 155 0C153.895 0 153 0.895431 153 2C153 3.10457 153.895 4 155 4Z" fill="#3F3B37"/>
<path fill-rule="evenodd" clip-rule="evenodd" d="M164 3C164.552 3 165 2.55228 165 2C165 1.44772 164.552 1 164 1C163.448 1 163 1.44772 163 2C163 2.55228 163.448 3 164 3ZM164 4C165.105 4 166 3.10457 166 2C166 0.895431 165.105 0 164 0C162.895 0 162 0.895431 162 2C162 3.10457 162.895 4 164 4Z" fill="#3F3B37"/>
<path fill-rule="evenodd" clip-rule="evenodd" d="M173 3C173.552 3 174 2.55228 174 2C174 1.44772 173.552 1 173 1C172.448 1 172 1.44772 172 2C172 2.55228 172.448 3 173 3ZM173 4C174.105 4 175 3.10457 175 2C175 0.895431 174.105 0 173 0C171.895 0 171 0.895431 171 2C171 3.10457 171.895 4 173 4Z" fill="#3F3B37"/>
<path fill-rule="evenodd" clip-rule="evenodd" d="M182 3C182.552 3 183 2.55228 183 2C183 1.44772 182.552 1 182 1C181.448 1 181 1.44772 181 2C181 2.55228 181.448 3 182 3ZM182 4C183.105 4 184 3.10457 184 2C184 0.895431 183.105 0 182 0C180.895 0 180 0.895431 180 2C180 3.10457 180.895 4 182 4Z" fill="#3F3B37"/>
<path fill-rule="evenodd" clip-rule="evenodd" d="M191 3C191.552 3 192 2.55228 192 2C192 1.44772 191.552 1 191 1C190.448 1 190 1.44772 190 2C190 2.55228 190.448 3 191 3ZM191 4C192.105 4 193 3.10457 193 2C193 0.895431 192.105 0 191 0C189.895 0 189 0.895431 189 2C189 3.10457 189.895 4 191 4Z" fill="#3F3B37"/>
<path fill-rule="evenodd" clip-rule="evenodd" d="M200 3C200.552 3 201 2.55228 201 2C201 1.44772 200.552 1 200 1C199.448 1 199 1.44772 199 2C199 2.55228 199.448 3 200 3ZM200 4C201.105 4 202 3.10457 202 2C202 0.895431 201.105 0 200 0C198.895 0 198 0.895431 198 2C198 3.10457 198.895 4 200 4Z" fill="#3F3B37"/>
<path fill-rule="evenodd" clip-rule="evenodd" d="M209 3C209.552 3 210 2.55228 210 2C210 1.44772 209.552 1 209 1C208.448 1 208 1.44772 208 2C208 2.55228 208.448 3 209 3ZM209 4C210.105 4 211 3.10457 211 2C211 0.895431 210.105 0 209 0C207.895 0 207 0.895431 207 2C207 3.10457 207.895 4 209 4Z" fill="#3F3B37"/>
<path fill-rule="evenodd" clip-rule="evenodd" d="M218 3C218.552 3 219 2.55228 219 2C219 1.44772 218.552 1 218 1C217.448 1 217 1.44772 217 2C217 2.55228 217.448 3 218 3ZM218 4C219.105 4 220 3.10457 220 2C220 0.895431 219.105 0 218 0C216.895 0 216 0.895431 216 2C216 3.10457 216.895 4 218 4Z" fill="#3F3B37"/>
<path fill-rule="evenodd" clip-rule="evenodd" d="M227 3C227.552 3 228 2.55228 228 2C228 1.44772 227.552 1 227 1C226.448 1 226 1.44772 226 2C226 2.55228 226.448 3 227 3ZM227 4C228.105 4 229 3.10457 229 2C229 0.895431 228.105 0 227 0C225.895 0 225 0.895431 225 2C225 3.10457 225.895 4 227 4Z" fill="#3F3B37"/>
<path fill-rule="evenodd" clip-rule="evenodd" d="M236 3C236.552 3 237 2.55228 237 2C237 1.44772 236.552 1 236 1C235.448 1 235 1.44772 235 2C235 2.55228 235.448 3 236 3ZM236 4C237.105 4 238 3.10457 238 2C238 0.895431 237.105 0 236 0C234.895 0 234 0.895431 234 2C234 3.10457 234.895 4 236 4Z" fill="#3F3B37"/>
<path fill-rule="evenodd" clip-rule="evenodd" d="M245 3C245.552 3 246 2.55228 246 2C246 1.44772 245.552 1 245 1C244.448 1 244 1.44772 244 2C244 2.55228 244.448 3 245 3ZM245 4C246.105 4 247 3.10457 247 2C247 0.895431 246.105 0 245 0C243.895 0 243 0.895431 243 2C243 3.10457 243.895 4 245 4Z" fill="#3F3B37"/>
<path fill-rule="evenodd" clip-rule="evenodd" d="M254 3C254.552 3 255 2.55228 255 2C255 1.44772 254.552 1 254 1C253.448 1 253 1.44772 253 2C253 2.55228 253.448 3 254 3ZM254 4C255.105 4 256 3.10457 256 2C256 0.895431 255.105 0 254 0C252.895 0 252 0.895431 252 2C252 3.10457 252.895 4 254 4Z" fill="#3F3B37"/>
<path fill-rule="evenodd" clip-rule="evenodd" d="M263 3C263.552 3 264 2.55228 264 2C264 1.44772 263.552 1 263 1C262.448 1 262 1.44772 262 2C262 2.55228 262.448 3 263 3ZM263 4C264.105 4 265 3.10457 265 2C265 0.895431 264.105 0 263 0C261.895 0 261 0.895431 261 2C261 3.10457 261.895 4 263 4Z" fill="#3F3B37"/>
<path fill-rule="evenodd" clip-rule="evenodd" d="M272 3C272.552 3 273 2.55228 273 2C273 1.44772 272.552 1 272 1C271.448 1 271 1.44772 271 2C271 2.55228 271.448 3 272 3ZM272 4C273.105 4 274 3.10457 274 2C274 0.895431 273.105 0 272 0C270.895 0 270 0.895431 270 2C270 3.10457 270.895 4 272 4Z" fill="#3F3B37"/>
<path fill-rule="evenodd" clip-rule="evenodd" d="M2 3C2.55228 3 3 2.55228 3 2C3 1.44772 2.55228 1 2 1C1.44772 1 1 1.44772 1 2C1 2.55228 1.44772 3 2 3ZM2 4C3.10457 4 4 3.10457 4 2C4 0.895431 3.10457 0 2 0C0.895431 0 0 0.895431 0 2C0 3.10457 0.895431 4 2 4Z" fill="#3F3B37"/>
</svg>
