<svg width="420" height="18" viewBox="0 0 420 18" fill="none" xmlns="http://www.w3.org/2000/svg">
<path d="M0 9H309" stroke="#D4A377"/>
<path d="M320 1L309 9L320 17" stroke="#D4A377"/>
<circle r="2" transform="matrix(-1 0 0 1 319 9)" fill="#D4A377"/>
<circle r="1.5" transform="matrix(-1 0 0 1 409 9)" stroke="#3F3B37"/>
<circle r="1.5" transform="matrix(-1 0 0 1 400 9)" stroke="#3F3B37"/>
<circle r="1.5" transform="matrix(-1 0 0 1 391 9)" stroke="#3F3B37"/>
<circle r="1.5" transform="matrix(-1 0 0 1 382 9)" stroke="#3F3B37"/>
<circle r="1.5" transform="matrix(-1 0 0 1 373 9)" stroke="#3F3B37"/>
<circle r="1.5" transform="matrix(-1 0 0 1 364 9)" stroke="#3F3B37"/>
<circle r="1.5" transform="matrix(-1 0 0 1 355 9)" stroke="#3F3B37"/>
<circle r="1.5" transform="matrix(-1 0 0 1 346 9)" stroke="#3F3B37"/>
<circle r="1.5" transform="matrix(-1 0 0 1 337 9)" stroke="#3F3B37"/>
<circle r="1.5" transform="matrix(-1 0 0 1 328 9)" stroke="#3F3B37"/>
<circle r="1.5" transform="matrix(-1 0 0 1 418 9)" stroke="#3F3B37"/>
</svg>
