<svg width="96" height="60" viewBox="0 0 96 60" fill="none" xmlns="http://www.w3.org/2000/svg">
<path d="M60.4836 35.9761V35.9775C60.4836 42.3347 65.6378 47.4888 71.9953 47.4888C78.3528 47.4888 83.507 42.3347 83.507 35.9775C83.507 29.6208 78.3533 24.4663 71.9766 24.4663C65.6188 24.4663 60.4656 29.6203 60.4836 35.9761ZM1.25146 12.455L7.45422 18.6082L7.81139 18.9625L7.45487 19.3175C3.17836 23.5754 0.518349 29.4651 0.5 35.9602C0.500755 48.9501 11.0328 59.4813 24.0234 59.4813C30.0419 59.4813 35.5091 57.2251 39.6754 53.5178L40.1192 53.8341L40.2082 53.7118L47.9516 59.3431L55.7898 53.5821L56.115 53.3431L56.4172 53.6106C60.5642 57.2803 66.0128 59.5 71.9766 59.5C84.9677 59.5 95.5 48.9681 95.5 35.9775C95.5 29.4635 92.8583 23.5746 88.5826 19.3175L88.2261 18.9625L88.5833 18.6082L94.786 12.455H81.6459H81.4683L81.3305 12.343C73.3913 5.888 60.2898 0.5 48.0468 0.5C35.8217 0.5 22.6079 5.88866 14.6695 12.343L14.5317 12.455H14.3541H1.25146ZM48.5085 34.5644L47.5102 34.5637C46.8497 23.2079 38.1161 14.033 26.9783 12.6385L25.7139 12.4802L26.7485 11.7364C32.5844 7.54091 40.0006 5.49625 48.0468 5.49625C56.0931 5.49625 63.5093 7.54091 69.3451 11.7364L70.3853 12.4842L69.1136 12.6388C57.9399 13.9964 49.1874 23.1891 48.5085 34.5644ZM53.4496 35.9785V35.9775C53.4496 25.7513 61.75 17.4513 71.9766 17.4513C82.2031 17.4513 90.5035 25.7513 90.5035 35.9775C90.5035 46.2034 82.2222 54.5037 71.9766 54.5037C61.7492 54.5037 53.4689 46.2031 53.4496 35.9785ZM66.4613 35.9588C66.4613 38.9839 68.9138 41.4363 71.9391 41.4363C74.9644 41.4363 77.4168 38.9839 77.4168 35.9588C77.4168 32.9336 74.9644 30.4813 71.9391 30.4813C68.9138 30.4813 66.4613 32.9336 66.4613 35.9588ZM81.0778 35.9775C81.0778 41.0139 76.993 45.0784 71.9766 45.0784C66.9581 45.0784 62.8941 40.993 62.8941 35.9775C62.8941 30.9627 66.9386 26.8766 71.9766 26.8766C77.0124 26.8766 81.0778 30.9418 81.0778 35.9775ZM5.47774 35.9785V35.9775C5.47774 25.7513 13.7781 17.4513 24.0047 17.4513C34.2312 17.4513 42.5316 25.7513 42.5316 35.9775C42.5316 46.2037 34.2312 54.5037 24.0047 54.5037C13.7773 54.5037 5.497 46.2031 5.47774 35.9785ZM18.4894 35.9588C18.4894 38.9839 20.9419 41.4363 23.9672 41.4363C26.9925 41.4363 29.4449 38.9839 29.4449 35.9588C29.4449 32.9336 26.9925 30.4813 23.9672 30.4813C20.9419 30.4813 18.4894 32.9336 18.4894 35.9588ZM35.5164 35.9775C35.5164 29.6203 30.3622 24.4663 24.0047 24.4663C17.6472 24.4663 12.493 29.6203 12.493 35.9775C12.493 42.3347 17.6472 47.4888 24.0047 47.4888C30.3622 47.4888 35.5164 42.3347 35.5164 35.9775ZM33.1059 35.9775C33.1059 41.0139 29.0211 45.0784 24.0047 45.0784C18.9862 45.0784 14.9222 40.993 14.9222 35.9775C14.9222 30.9627 18.9667 26.8766 24.0047 26.8766C29.0405 26.8766 33.1059 30.9418 33.1059 35.9775Z" stroke="#D4A377"/>
</svg>
