<svg width="221" height="212" viewBox="0 0 221 212" fill="none" xmlns="http://www.w3.org/2000/svg">
<path d="M102.925 10.325L93.725 0.225C93.525 -0.075 93.025 -0.075 92.825 0.225L84.025 9.825L75.225 0.225C75.025 0.125 74.925 0.025 74.725 0.025C74.525 0.025 74.425 0.125 74.225 0.225L65.425 9.825L56.625 0.225C56.425 -0.075 55.925 -0.075 55.725 0.225L46.925 9.825L38.125 0.225C37.925 -0.075 37.425 -0.075 37.225 0.225L28.425 9.825L19.625 0.225C19.525 0.125 19.325 0.025 19.125 0.025C18.925 0.025 18.825 0.125 18.625 0.225L9.925 9.825L1.125 0.225C0.925 -0.075 0.525 -0.075 0.225 0.225C-0.075 0.425 -0.075 0.825 0.225 1.125L9.525 11.225C9.625 11.325 9.825 11.425 10.025 11.425C10.225 11.425 10.325 11.325 10.525 11.225L19.325 1.625L28.125 11.225C28.225 11.325 28.425 11.425 28.625 11.425C28.825 11.425 28.925 11.325 29.125 11.225L37.925 1.625L46.725 11.225C46.925 11.525 47.425 11.525 47.625 11.225L56.425 1.625L65.225 11.225C65.325 11.325 65.525 11.425 65.725 11.425C65.925 11.425 66.025 11.325 66.225 11.225L75.025 1.625L83.825 11.225C83.925 11.325 84.125 11.425 84.325 11.425C84.525 11.425 84.625 11.325 84.825 11.225L93.625 1.625L102.425 11.225C102.525 11.325 102.725 11.425 102.925 11.425C103.125 11.425 103.225 11.325 103.325 11.225C103.225 10.925 103.225 10.525 102.925 10.325Z" fill="#AF8865"/>
<path d="M219.925 210.325L210.725 200.225C210.525 199.925 210.025 199.925 209.825 200.225L201.025 209.825L192.225 200.225C192.025 200.125 191.925 200.025 191.725 200.025C191.525 200.025 191.425 200.125 191.225 200.225L182.425 209.825L173.625 200.225C173.425 199.925 172.925 199.925 172.725 200.225L163.925 209.825L155.125 200.225C154.925 199.925 154.425 199.925 154.225 200.225L145.425 209.825L136.625 200.225C136.525 200.125 136.325 200.025 136.125 200.025C135.925 200.025 135.825 200.125 135.625 200.225L126.925 209.825L118.125 200.225C117.925 199.925 117.525 199.925 117.225 200.225C116.925 200.425 116.925 200.825 117.225 201.125L126.525 211.225C126.625 211.325 126.825 211.425 127.025 211.425C127.225 211.425 127.325 211.325 127.525 211.225L136.325 201.625L145.125 211.225C145.225 211.325 145.425 211.425 145.625 211.425C145.825 211.425 145.925 211.325 146.125 211.225L154.925 201.625L163.725 211.225C163.925 211.525 164.425 211.525 164.625 211.225L173.425 201.625L182.225 211.225C182.325 211.325 182.525 211.425 182.725 211.425C182.925 211.425 183.025 211.325 183.225 211.225L192.025 201.625L200.825 211.225C200.925 211.325 201.125 211.425 201.325 211.425C201.525 211.425 201.625 211.325 201.825 211.225L210.625 201.625L219.425 211.225C219.525 211.325 219.725 211.425 219.925 211.425C220.125 211.425 220.225 211.325 220.325 211.225C220.225 210.925 220.225 210.525 219.925 210.325Z" fill="#63605E"/>
</svg>
